# xmcd
#
# Track frame offsets:
#	150
#	11670
#	19531
#	30360
#	42840
#	54776
#	66205
#	74625
#	85448
#	96089
#	106512
#	119702
#	131972
#	142361
#	153071
#	163596
#	173806
#	185658
#	194107
#	205668
#	215266
#	226823
#	235654
#	245732
#
# Disc length: 3391 seconds
# Revision: 2
# Processed by: cddbd v1.5.2PL0 Copyright (c) Steve Scherf et al.
# Submitted via: dBpowerAMP V12.0
#
DISCID=510d3d18
DTITLE=Faron Young - Talk About Hits - Sings The Best Of Faron Young (1960)
DYEAR=2011
DGENRE=Country
TTITLE0=Don't Let The Stars Get In Your Eyes
TTITLE1=I'll Go On Alone
TTITLE2=Almost
TTITLE3=Mom And Dad's Waltz
TTITLE4=I Don't Hurt Anymore
TTITLE5=Chattanooga Shoeshine Boy
TTITLE6=Hey Good Lookin'
TTITLE7=Bouquet Of Roses
TTITLE8=Slowly
TTITLE9=Tennessee Waltz
TTITLE10=Making Believe
TTITLE11=Bimbo
TTITLE12=Riverboat
TTITLE13=A Lifetime Isn't Long Eenough
TTITLE14=Face To Tthe Wall
TTITLE15=Everytime I'm Kissing You
TTITLE16=A long Time Ago
TTITLE17=That's The Way It's Gotta Be
TTITLE18=Your Old Used To Be
TTITLE19=I Hear You Talkin'
TTITLE20=Country Girl
TTITLE21=Alone With You
TTITLE22=I'll Be Alright (In The Morning)
TTITLE23=I Hate Myself (For Falling In Love With You)
EXTD=
EXTT0=
EXTT1=
EXTT2=
EXTT3=
EXTT4=
EXTT5=
EXTT6=
EXTT7=
EXTT8=
EXTT9=
EXTT10=
EXTT11=
EXTT12=
EXTT13=
EXTT14=
EXTT15=
EXTT16=
EXTT17=
EXTT18=
EXTT19=
EXTT20=
EXTT21=
EXTT22=
EXTT23=
PLAYORDER=
